<?xml version="1.0" encoding="UTF-8" standalone="no"?>
<!DOCTYPE svg PUBLIC "-//W3C//DTD SVG 1.1//EN"
 "http://www.w3.org/Graphics/SVG/1.1/DTD/svg11.dtd">
<!-- Generated by graphviz version 5.0.1 (20220820.1526)
 -->
<!-- Title: dependency&#45;cruiser output Pages: 1 -->
<svg width="544pt" height="414pt"
 viewBox="0.00 0.00 544.00 414.00" xmlns="http://www.w3.org/2000/svg" xmlns:xlink="http://www.w3.org/1999/xlink">
<g id="graph0" class="graph" transform="scale(1 1) rotate(0) translate(4 410)">
<title>dependency&#45;cruiser output</title>
<polygon fill="white" stroke="none" points="-4,4 -4,-410 540,-410 540,4 -4,4"/>
<g id="clust1" class="cluster">
<title>cluster_src</title>
<path fill="#ffffff" stroke="black" stroke-width="2" d="M20,-8C20,-8 516,-8 516,-8 522,-8 528,-14 528,-20 528,-20 528,-386 528,-386 528,-392 522,-398 516,-398 516,-398 20,-398 20,-398 14,-398 8,-392 8,-386 8,-386 8,-20 8,-20 8,-14 14,-8 20,-8"/>
<text text-anchor="middle" x="268" y="-386.8" font-family="Helvetica,sans-Serif" font-weight="bold" font-size="9.00">src</text>
</g>
<g id="clust2" class="cluster">
<title>cluster_src/application</title>
<path fill="#ffffff" stroke="black" stroke-width="2" d="M312.5,-170C312.5,-170 423.5,-170 423.5,-170 429.5,-170 435.5,-176 435.5,-182 435.5,-182 435.5,-210 435.5,-210 435.5,-216 429.5,-222 423.5,-222 423.5,-222 312.5,-222 312.5,-222 306.5,-222 300.5,-216 300.5,-210 300.5,-210 300.5,-182 300.5,-182 300.5,-176 306.5,-170 312.5,-170"/>
<text text-anchor="middle" x="368" y="-210.8" font-family="Helvetica,sans-Serif" font-weight="bold" font-size="9.00">application</text>
</g>
<g id="clust3" class="cluster">
<title>cluster_src/domain</title>
<path fill="#ffffff" stroke="black" stroke-width="2" d="M325.5,-230C325.5,-230 410.5,-230 410.5,-230 416.5,-230 422.5,-236 422.5,-242 422.5,-242 422.5,-360 422.5,-360 422.5,-366 416.5,-372 410.5,-372 410.5,-372 325.5,-372 325.5,-372 319.5,-372 313.5,-366 313.5,-360 313.5,-360 313.5,-242 313.5,-242 313.5,-236 319.5,-230 325.5,-230"/>
<text text-anchor="middle" x="368" y="-360.8" font-family="Helvetica,sans-Serif" font-weight="bold" font-size="9.00">domain</text>
</g>
<g id="clust4" class="cluster">
<title>cluster_src/infrastructure</title>
<path fill="#ffffff" stroke="black" stroke-width="2" d="M90,-16C90,-16 508,-16 508,-16 514,-16 520,-22 520,-28 520,-28 520,-150 520,-150 520,-156 514,-162 508,-162 508,-162 90,-162 90,-162 84,-162 78,-156 78,-150 78,-150 78,-28 78,-28 78,-22 84,-16 90,-16"/>
<text text-anchor="middle" x="299" y="-150.8" font-family="Helvetica,sans-Serif" font-weight="bold" font-size="9.00">infrastructure</text>
</g>
<g id="clust5" class="cluster">
<title>cluster_src/infrastructure/database</title>
<path fill="#ffffff" stroke="black" stroke-width="2" d="M303,-24C303,-24 500,-24 500,-24 506,-24 512,-30 512,-36 512,-36 512,-64 512,-64 512,-70 506,-76 500,-76 500,-76 303,-76 303,-76 297,-76 291,-70 291,-64 291,-64 291,-36 291,-36 291,-30 297,-24 303,-24"/>
<text text-anchor="middle" x="401.5" y="-64.8" font-family="Helvetica,sans-Serif" font-weight="bold" font-size="9.00">database</text>
</g>
<g id="clust6" class="cluster">
<title>cluster_src/infrastructure/email&#45;sender</title>
<path fill="#ffffff" stroke="black" stroke-width="2" d="M322,-84C322,-84 414,-84 414,-84 420,-84 426,-90 426,-96 426,-96 426,-124 426,-124 426,-130 420,-136 414,-136 414,-136 322,-136 322,-136 316,-136 310,-130 310,-124 310,-124 310,-96 310,-96 310,-90 316,-84 322,-84"/>
<text text-anchor="middle" x="368" y="-124.8" font-family="Helvetica,sans-Serif" font-weight="bold" font-size="9.00">email&#45;sender</text>
</g>
<g id="clust7" class="cluster">
<title>cluster_src/infrastructure/rest&#45;api</title>
<path fill="#ffffff" stroke="black" stroke-width="2" d="M98,-54C98,-54 179,-54 179,-54 185,-54 191,-60 191,-66 191,-66 191,-124 191,-124 191,-130 185,-136 179,-136 179,-136 98,-136 98,-136 92,-136 86,-130 86,-124 86,-124 86,-66 86,-66 86,-60 92,-54 98,-54"/>
<text text-anchor="middle" x="138.5" y="-124.8" font-family="Helvetica,sans-Serif" font-weight="bold" font-size="9.00">rest&#45;api</text>
</g>
<!-- src/application/welcome&#45;email&#45;sender.ts -->
<g id="node1" class="node">
<title>src/application/welcome&#45;email&#45;sender.ts</title>
<g id="a_node1"><a xlink:href="src/application/welcome-email-sender.ts" xlink:title="welcome&#45;email&#45;sender.ts">
<path fill="#ddfeff" stroke="black" d="M421.5,-196C421.5,-196 314.5,-196 314.5,-196 311.5,-196 308.5,-193 308.5,-190 308.5,-190 308.5,-184 308.5,-184 308.5,-181 311.5,-178 314.5,-178 314.5,-178 421.5,-178 421.5,-178 424.5,-178 427.5,-181 427.5,-184 427.5,-184 427.5,-190 427.5,-190 427.5,-193 424.5,-196 421.5,-196"/>
<text text-anchor="start" x="316.5" y="-184.8" font-family="Helvetica,sans-Serif" font-size="9.00">welcome&#45;email&#45;sender.ts</text>
</a>
</g>
</g>
<!-- src/domain/email&#45;sender.ts -->
<g id="node2" class="node">
<title>src/domain/email&#45;sender.ts</title>
<g id="a_node2"><a xlink:href="src/domain/email-sender.ts" xlink:title="email&#45;sender.ts">
<path fill="#ccffcc" stroke="black" d="M402,-346C402,-346 334,-346 334,-346 331,-346 328,-343 328,-340 328,-340 328,-334 328,-334 328,-331 331,-328 334,-328 334,-328 402,-328 402,-328 405,-328 408,-331 408,-334 408,-334 408,-340 408,-340 408,-343 405,-346 402,-346"/>
<text text-anchor="start" x="336" y="-334.8" font-family="Helvetica,sans-Serif" font-size="9.00">email&#45;sender.ts</text>
</a>
</g>
</g>
<!-- src/domain/user&#45;by&#45;id&#45;finder.ts -->
<g id="node3" class="node">
<title>src/domain/user&#45;by&#45;id&#45;finder.ts</title>
<g id="a_node3"><a xlink:href="src/domain/user-by-id-finder.ts" xlink:title="user&#45;by&#45;id&#45;finder.ts">
<path fill="#ddfeff" stroke="black" d="M408.5,-316C408.5,-316 327.5,-316 327.5,-316 324.5,-316 321.5,-313 321.5,-310 321.5,-310 321.5,-304 321.5,-304 321.5,-301 324.5,-298 327.5,-298 327.5,-298 408.5,-298 408.5,-298 411.5,-298 414.5,-301 414.5,-304 414.5,-304 414.5,-310 414.5,-310 414.5,-313 411.5,-316 408.5,-316"/>
<text text-anchor="start" x="329.5" y="-304.8" font-family="Helvetica,sans-Serif" font-size="9.00">user&#45;by&#45;id&#45;finder.ts</text>
</a>
</g>
</g>
<!-- src/domain/user.ts -->
<g id="node4" class="node">
<title>src/domain/user.ts</title>
<g id="a_node4"><a xlink:href="src/domain/user.ts" xlink:title="user.ts">
<path fill="#ccffcc" stroke="black" d="M389,-286C389,-286 347,-286 347,-286 344,-286 341,-283 341,-280 341,-280 341,-274 341,-274 341,-271 344,-268 347,-268 347,-268 389,-268 389,-268 392,-268 395,-271 395,-274 395,-274 395,-280 395,-280 395,-283 392,-286 389,-286"/>
<text text-anchor="start" x="354" y="-274.8" font-family="Helvetica,sans-Serif" font-size="9.00">user.ts</text>
</a>
</g>
</g>
<!-- src/domain/users&#45;repository.ts -->
<g id="node5" class="node">
<title>src/domain/users&#45;repository.ts</title>
<g id="a_node5"><a xlink:href="src/domain/users-repository.ts" xlink:title="users&#45;repository.ts">
<path fill="#ccffcc" stroke="black" d="M408,-256C408,-256 328,-256 328,-256 325,-256 322,-253 322,-250 322,-250 322,-244 322,-244 322,-241 325,-238 328,-238 328,-238 408,-238 408,-238 411,-238 414,-241 414,-244 414,-244 414,-250 414,-250 414,-253 411,-256 408,-256"/>
<text text-anchor="start" x="330" y="-244.8" font-family="Helvetica,sans-Serif" font-size="9.00">users&#45;repository.ts</text>
</a>
</g>
</g>
<!-- src/index.ts -->
<g id="node6" class="node">
<title>src/index.ts</title>
<g id="a_node6"><a xlink:href="src/index.ts" xlink:title="index.ts">
<path fill="#ddfeff" stroke="black" d="M64,-110C64,-110 22,-110 22,-110 19,-110 16,-107 16,-104 16,-104 16,-98 16,-98 16,-95 19,-92 22,-92 22,-92 64,-92 64,-92 67,-92 70,-95 70,-98 70,-98 70,-104 70,-104 70,-107 67,-110 64,-110"/>
<text text-anchor="start" x="27" y="-98.8" font-family="Helvetica,sans-Serif" font-size="9.00">index.ts</text>
</a>
</g>
</g>
<!-- src/infrastructure/rest&#45;api/users&#45;router.ts -->
<g id="node7" class="node">
<title>src/infrastructure/rest&#45;api/users&#45;router.ts</title>
<g id="a_node7"><a xlink:href="src/infrastructure/rest-api/users-router.ts" xlink:title="users&#45;router.ts">
<path fill="#ddfeff" stroke="black" d="M170,-110C170,-110 107,-110 107,-110 104,-110 101,-107 101,-104 101,-104 101,-98 101,-98 101,-95 104,-92 107,-92 107,-92 170,-92 170,-92 173,-92 176,-95 176,-98 176,-98 176,-104 176,-104 176,-107 173,-110 170,-110"/>
<text text-anchor="start" x="109" y="-98.8" font-family="Helvetica,sans-Serif" font-size="9.00">users&#45;router.ts</text>
</a>
</g>
</g>
<!-- src/index.ts&#45;&gt;src/infrastructure/rest&#45;api/users&#45;router.ts -->
<g id="edge1" class="edge">
<title>src/index.ts&#45;&gt;src/infrastructure/rest&#45;api/users&#45;router.ts</title>
<path fill="none" stroke="#000000" stroke-width="2" stroke-opacity="0.200000" d="M70.04,-101C77.62,-101 86.11,-101 94.44,-101"/>
<polygon fill="#000000" fill-opacity="0.200000" stroke="#000000" stroke-width="2" stroke-opacity="0.200000" points="94.76,-103.1 100.76,-101 94.76,-98.9 94.76,-103.1"/>
</g>
<!-- src/infrastructure/dependencies.ts -->
<g id="node10" class="node">
<title>src/infrastructure/dependencies.ts</title>
<g id="a_node10"><a xlink:href="src/infrastructure/dependencies.ts" xlink:title="dependencies.ts">
<path fill="#ddfeff" stroke="black" d="M277,-110C277,-110 205,-110 205,-110 202,-110 199,-107 199,-104 199,-104 199,-98 199,-98 199,-95 202,-92 205,-92 205,-92 277,-92 277,-92 280,-92 283,-95 283,-98 283,-98 283,-104 283,-104 283,-107 280,-110 277,-110"/>
<text text-anchor="start" x="207" y="-98.8" font-family="Helvetica,sans-Serif" font-size="9.00">dependencies.ts</text>
</a>
</g>
</g>
<!-- src/infrastructure/rest&#45;api/users&#45;router.ts&#45;&gt;src/infrastructure/dependencies.ts -->
<g id="edge8" class="edge">
<title>src/infrastructure/rest&#45;api/users&#45;router.ts&#45;&gt;src/infrastructure/dependencies.ts</title>
<path fill="none" stroke="#000000" stroke-width="2" stroke-opacity="0.200000" d="M176.07,-101C181.51,-101 187.18,-101 192.8,-101"/>
<polygon fill="#000000" fill-opacity="0.200000" stroke="#000000" stroke-width="2" stroke-opacity="0.200000" points="192.87,-103.1 198.87,-101 192.87,-98.9 192.87,-103.1"/>
</g>
<!-- src/infrastructure/database/in&#45;memory&#45;users&#45;repository.ts -->
<g id="node8" class="node">
<title>src/infrastructure/database/in&#45;memory&#45;users&#45;repository.ts</title>
<g id="a_node8"><a xlink:href="src/infrastructure/database/in-memory-users-repository.ts" xlink:title="in&#45;memory&#45;users&#45;repository.ts">
<path fill="#ddfeff" stroke="black" d="M431,-50C431,-50 305,-50 305,-50 302,-50 299,-47 299,-44 299,-44 299,-38 299,-38 299,-35 302,-32 305,-32 305,-32 431,-32 431,-32 434,-32 437,-35 437,-38 437,-38 437,-44 437,-44 437,-47 434,-50 431,-50"/>
<text text-anchor="start" x="307" y="-38.8" font-family="Helvetica,sans-Serif" font-size="9.00">in&#45;memory&#45;users&#45;repository.ts</text>
</a>
</g>
</g>
<!-- src/infrastructure/database/users.ts -->
<g id="node9" class="node">
<title>src/infrastructure/database/users.ts</title>
<g id="a_node9"><a xlink:href="src/infrastructure/database/users.ts" xlink:title="users.ts">
<path fill="#ddfeff" stroke="black" d="M498,-50C498,-50 456,-50 456,-50 453,-50 450,-47 450,-44 450,-44 450,-38 450,-38 450,-35 453,-32 456,-32 456,-32 498,-32 498,-32 501,-32 504,-35 504,-38 504,-38 504,-44 504,-44 504,-47 501,-50 498,-50"/>
<text text-anchor="start" x="461" y="-38.8" font-family="Helvetica,sans-Serif" font-size="9.00">users.ts</text>
</a>
</g>
</g>
<!-- src/infrastructure/database/in&#45;memory&#45;users&#45;repository.ts&#45;&gt;src/infrastructure/database/users.ts -->
<g id="edge2" class="edge">
<title>src/infrastructure/database/in&#45;memory&#45;users&#45;repository.ts&#45;&gt;src/infrastructure/database/users.ts</title>
<path fill="none" stroke="#000000" stroke-width="2" stroke-opacity="0.200000" d="M437.07,-41C439.29,-41 441.48,-41 443.62,-41"/>
<polygon fill="#000000" fill-opacity="0.200000" stroke="#000000" stroke-width="2" stroke-opacity="0.200000" points="443.85,-43.1 449.85,-41 443.85,-38.9 443.85,-43.1"/>
</g>
<!-- src/infrastructure/dependencies.ts&#45;&gt;src/application/welcome&#45;email&#45;sender.ts -->
<g id="edge3" class="edge">
<title>src/infrastructure/dependencies.ts&#45;&gt;src/application/welcome&#45;email&#45;sender.ts</title>
<path fill="none" stroke="#000000" stroke-width="2" stroke-opacity="0.200000" d="M253.06,-110.07C262.84,-117.97 277.6,-129.61 291,-139 309.21,-151.77 330.69,-165.19 346.17,-174.59"/>
<polygon fill="#000000" fill-opacity="0.200000" stroke="#000000" stroke-width="2" stroke-opacity="0.200000" points="345.36,-176.55 351.58,-177.86 347.53,-172.96 345.36,-176.55"/>
</g>
<!-- src/infrastructure/dependencies.ts&#45;&gt;src/domain/user&#45;by&#45;id&#45;finder.ts -->
<g id="edge4" class="edge">
<title>src/infrastructure/dependencies.ts&#45;&gt;src/domain/user&#45;by&#45;id&#45;finder.ts</title>
<path fill="none" stroke="#000000" stroke-width="2" stroke-opacity="0.200000" d="M243.07,-110.2C247.27,-144.78 263.76,-266.25 291,-292 297.73,-298.37 306.35,-302.39 315.35,-304.88"/>
<polygon fill="#000000" fill-opacity="0.200000" stroke="#000000" stroke-width="2" stroke-opacity="0.200000" points="314.97,-306.95 321.3,-306.29 315.95,-302.86 314.97,-306.95"/>
</g>
<!-- src/infrastructure/dependencies.ts&#45;&gt;src/infrastructure/database/in&#45;memory&#45;users&#45;repository.ts -->
<g id="edge5" class="edge">
<title>src/infrastructure/dependencies.ts&#45;&gt;src/infrastructure/database/in&#45;memory&#45;users&#45;repository.ts</title>
<path fill="none" stroke="#000000" stroke-width="2" stroke-opacity="0.200000" d="M260.98,-91.89C282.86,-81.39 318.86,-64.11 342.75,-52.64"/>
<polygon fill="#000000" fill-opacity="0.200000" stroke="#000000" stroke-width="2" stroke-opacity="0.200000" points="343.75,-54.49 348.25,-50 341.93,-50.71 343.75,-54.49"/>
</g>
<!-- src/infrastructure/email&#45;sender/fake&#45;email&#45;sender.ts -->
<g id="node11" class="node">
<title>src/infrastructure/email&#45;sender/fake&#45;email&#45;sender.ts</title>
<g id="a_node11"><a xlink:href="src/infrastructure/email-sender/fake-email-sender.ts" xlink:title="fake&#45;email&#45;sender.ts">
<path fill="#ddfeff" stroke="black" d="M412,-110C412,-110 324,-110 324,-110 321,-110 318,-107 318,-104 318,-104 318,-98 318,-98 318,-95 321,-92 324,-92 324,-92 412,-92 412,-92 415,-92 418,-95 418,-98 418,-98 418,-104 418,-104 418,-107 415,-110 412,-110"/>
<text text-anchor="start" x="326" y="-98.8" font-family="Helvetica,sans-Serif" font-size="9.00">fake&#45;email&#45;sender.ts</text>
</a>
</g>
</g>
<!-- src/infrastructure/dependencies.ts&#45;&gt;src/infrastructure/email&#45;sender/fake&#45;email&#45;sender.ts -->
<g id="edge6" class="edge">
<title>src/infrastructure/dependencies.ts&#45;&gt;src/infrastructure/email&#45;sender/fake&#45;email&#45;sender.ts</title>
<path fill="none" stroke="#000000" stroke-width="2" stroke-opacity="0.200000" d="M283.28,-101C292.38,-101 302.16,-101 311.71,-101"/>
<polygon fill="#000000" fill-opacity="0.200000" stroke="#000000" stroke-width="2" stroke-opacity="0.200000" points="311.95,-103.1 317.95,-101 311.95,-98.9 311.95,-103.1"/>
</g>
<!-- src/infrastructure/rest&#45;api/users&#45;controller.ts -->
<g id="node12" class="node">
<title>src/infrastructure/rest&#45;api/users&#45;controller.ts</title>
<g id="a_node12"><a xlink:href="src/infrastructure/rest-api/users-controller.ts" xlink:title="users&#45;controller.ts">
<path fill="#ddfeff" stroke="black" d="M177,-80C177,-80 100,-80 100,-80 97,-80 94,-77 94,-74 94,-74 94,-68 94,-68 94,-65 97,-62 100,-62 100,-62 177,-62 177,-62 180,-62 183,-65 183,-68 183,-68 183,-74 183,-74 183,-77 180,-80 177,-80"/>
<text text-anchor="start" x="102" y="-68.8" font-family="Helvetica,sans-Serif" font-size="9.00">users&#45;controller.ts</text>
</a>
</g>
</g>
<!-- src/infrastructure/dependencies.ts&#45;&gt;src/infrastructure/rest&#45;api/users&#45;controller.ts -->
<g id="edge7" class="edge">
<title>src/infrastructure/dependencies.ts&#45;&gt;src/infrastructure/rest&#45;api/users&#45;controller.ts</title>
<path fill="none" stroke="#000000" stroke-width="2" stroke-opacity="0.200000" d="M210.74,-91.97C204.25,-89.99 197.39,-87.91 191,-86 186.42,-84.63 181.61,-83.21 176.84,-81.81"/>
<polygon fill="#000000" fill-opacity="0.200000" stroke="#000000" stroke-width="2" stroke-opacity="0.200000" points="177.19,-79.72 170.84,-80.05 176.01,-83.76 177.19,-79.72"/>
</g>
</g>
</svg>
